<?xml version="1.0" encoding="UTF-8"?>
<svg version="1.1" xmlns="http://www.w3.org/2000/svg" width="2804" height="1201">
<path d="M0 0 C1.0582196 -0.00101212 1.0582196 -0.00101212 2.13781738 -0.00204468 C14.19686403 0.0161853 25.85872946 0.80532326 37.6875 3.25 C38.50541016 3.41628906 39.32332031 3.58257813 40.16601562 3.75390625 C91.2147115 14.49681185 136.47626439 47.0941514 165.13769531 90.44335938 C168.4697025 95.62648166 171.61540495 100.90948033 174.6875 106.25 C175.08565918 106.93642578 175.48381836 107.62285156 175.89404297 108.33007812 C196.60531218 144.42065878 206.19922286 186.83675167 206 228.25 C205.99726578 229.44523285 205.99726578 229.44523285 205.99447632 230.66461182 C205.75435546 293.53560542 183.29370935 352.98167885 140.06835938 398.78564453 C138.7515722 400.18205356 137.44580084 401.58882594 136.140625 402.99609375 C107.08531821 433.32807311 65.26754435 453.43723578 23.6875 458.25 C22.80191406 458.36085938 21.91632813 458.47171875 21.00390625 458.5859375 C-23.04696445 463.20971684 -70.39739759 453.4981599 -105.3125 425.25 C-109.46709111 421.74237383 -113.40251597 418.02611867 -117.3125 414.25 C-118.10269531 413.51136719 -118.89289063 412.77273438 -119.70703125 412.01171875 C-126.15102428 405.83857656 -130.70487276 399.53991541 -136.3125 392.25 C-136.6425 446.04 -136.9725 499.83 -137.3125 555.25 C-179.2225 555.25 -221.1325 555.25 -264.3125 555.25 C-264.3125 375.07 -264.3125 194.89 -264.3125 9.25 C-222.4025 9.25 -180.4925 9.25 -137.3125 9.25 C-136.9825 28.39 -136.6525 47.53 -136.3125 67.25 C-133.0125 62.96 -129.7125 58.67 -126.3125 54.25 C-120.98018495 48.05298522 -115.65846617 42.3903422 -109.3125 37.25 C-108.39082031 36.49074219 -107.46914063 35.73148438 -106.51953125 34.94921875 C-76.0654931 10.36700597 -38.70103094 0.03345878 0 0 Z M-109.4296875 158.58203125 C-129.93602654 183.27740842 -138.00696059 212.8219092 -135.09423828 244.63378906 C-134.51391462 248.93981103 -133.50218991 253.07649103 -132.3125 257.25 C-131.9721875 258.47460938 -131.631875 259.69921875 -131.28125 260.9609375 C-123.92218951 285.07677763 -107.80373792 306.85793935 -86.3125 320.25 C-85.58417969 320.74628906 -84.85585938 321.24257813 -84.10546875 321.75390625 C-72.22455045 329.50585124 -58.2177723 333.95084783 -44.3125 336.25 C-42.394375 336.5903125 -42.394375 336.5903125 -40.4375 336.9375 C-10.54467124 340.00343115 18.01828433 330.74658771 41.24951172 311.98876953 C63.03108931 293.86360459 76.10712833 268.10437176 79.375 240.0625 C81.19342554 216.68815509 76.04182527 195.57390397 64.6875 175.25 C64.14351562 174.26386719 63.59953125 173.27773438 63.0390625 172.26171875 C49.01033286 148.61817684 24.34704362 131.8589251 -2.01171875 125.02734375 C-3.64560547 124.64255859 -3.64560547 124.64255859 -5.3125 124.25 C-6.22644531 124.02441406 -7.14039063 123.79882812 -8.08203125 123.56640625 C-45.3394655 115.83775394 -84.21643114 130.81023412 -109.4296875 158.58203125 Z " fill="#010101" transform="translate(824.3125,560.75)"/>
<path d="M0 0 C0.80147461 0.6492041 0.80147461 0.6492041 1.61914062 1.31152344 C23.93984101 19.4355085 41.76822816 41.44899231 55 67 C55.3398291 67.64839844 55.6796582 68.29679687 56.02978516 68.96484375 C80.96653427 117.14488507 84.2441333 174.56872501 68.35107422 226.05639648 C59.54782885 253.16854261 45.76833704 277.58156724 27 299 C26.15284424 299.96679688 26.15284424 299.96679688 25.28857422 300.953125 C7.8054246 320.691369 -12.60345124 335.90415857 -36 348 C-36.61488281 348.32307129 -37.22976563 348.64614258 -37.86328125 348.97900391 C-58.74906281 359.83289538 -82.6668844 366.3736422 -106 369 C-106.98484375 369.11214844 -107.9696875 369.22429687 -108.984375 369.33984375 C-150.66859793 373.28148659 -192.21984475 364.88381229 -229 345 C-229.5986084 344.68063477 -230.1972168 344.36126953 -230.81396484 344.03222656 C-277.25404914 319.09710362 -313.08506798 274.63741176 -328.50390625 224.33203125 C-334.34779082 204.12114648 -337.42059711 183.88312432 -337.3125 162.875 C-337.30926727 161.73313736 -337.30926727 161.73313736 -337.30596924 160.56820679 C-337.07199676 108.78387546 -317.93379313 60.43301859 -283.0234375 22.24609375 C-281.42588072 20.47274404 -279.91616508 18.68316018 -278.4375 16.8125 C-275.25549565 13.14095652 -271.70153414 10.13484976 -268 7 C-266.62714844 5.77796875 -266.62714844 5.77796875 -265.2265625 4.53125 C-194.56183758 -57.89115967 -81.19037596 -62.64078099 0 0 Z " fill="#01A373" transform="translate(2608,124)"/>
<path d="M0 0 C1.13378082 0.00323273 1.13378082 0.00323273 2.29046631 0.00653076 C58.55724775 0.2619332 112.0041747 20.80475334 153.9375 58.3125 C154.49985352 58.81313965 155.06220703 59.3137793 155.64160156 59.82958984 C162.15182267 65.65154584 168.40708638 71.53437112 173.9375 78.3125 C174.91086297 79.46274366 175.88488849 80.6124268 176.859375 81.76171875 C184.72472682 91.13150128 191.59176635 100.85997576 197.9375 111.3125 C198.3288916 111.94559082 198.7202832 112.57868164 199.12353516 113.23095703 C214.30745178 137.96385574 222.88718839 165.917741 227.9375 194.3125 C228.07172363 195.05693359 228.20594727 195.80136719 228.34423828 196.56835938 C237.68637135 251.49116701 223.06078418 313.19629834 191.20166016 358.53564453 C190.7844873 359.12200684 190.36731445 359.70836914 189.9375 360.3125 C189.17824219 361.38371094 188.41898437 362.45492188 187.63671875 363.55859375 C185.46242069 366.5284609 183.22668416 369.43040536 180.9375 372.3125 C180.15503906 373.29992187 179.37257813 374.28734375 178.56640625 375.3046875 C166.75635101 389.86942838 153.26585093 403.46902147 137.9375 414.3125 C137.25751953 414.79380371 136.57753906 415.27510742 135.87695312 415.77099609 C85.03231198 451.36909727 23.30608989 466.9724413 -38.2265625 456.27734375 C-71.68830277 450.10294754 -103.22648661 438.12265861 -131.0625 418.3125 C-132.00996094 417.63960937 -132.95742187 416.96671875 -133.93359375 416.2734375 C-150.80323234 403.95165633 -166.18603875 389.77973286 -179.0625 373.3125 C-179.83980469 372.36375 -180.61710937 371.415 -181.41796875 370.4375 C-218.35151744 324.40267937 -234.16054616 262.50632901 -228.10839844 204.24609375 C-221.10651655 145.2080039 -192.00649123 89.43554871 -145.62890625 51.70141602 C-142.82297454 49.50097909 -139.95952204 47.39104145 -137.0625 45.3125 C-136.43666016 44.8582666 -135.81082031 44.4040332 -135.16601562 43.93603516 C-125.53252212 36.98410365 -115.59318292 30.80869132 -105.0625 25.3125 C-104.36382812 24.94415039 -103.66515625 24.57580078 -102.9453125 24.19628906 C-71.28492076 7.72317007 -35.59207269 -0.18509184 0 0 Z M-72.0625 150.3125 C-72.90296875 151.07046875 -73.7434375 151.8284375 -74.609375 152.609375 C-94.6163546 171.62221897 -105.66733046 197.69252446 -107.28515625 225.08203125 C-107.95976636 254.50089816 -97.77183699 282.30714198 -77.5546875 303.76220703 C-56.81818326 325.3061864 -29.24368376 336.94339879 0.6875 337.625 C31.01260543 337.47361447 58.45110791 324.42426493 79.61914062 303.12133789 C99.89752935 281.73249812 108.80952573 253.27123789 108.25 224.28125 C107.30759062 199.96708807 97.65882148 177.69382815 81.9375 159.3125 C81.27814453 158.47138672 81.27814453 158.47138672 80.60546875 157.61328125 C67.01919604 140.30100732 44.78002106 129.73726576 23.9375 124.3125 C22.52017578 123.94318359 22.52017578 123.94318359 21.07421875 123.56640625 C-12.36262217 116.54999245 -47.09833457 127.7988048 -72.0625 150.3125 Z " fill="#010101" transform="translate(291.0625,560.6875)"/>
<path d="M0 0 C41.91 0 83.82 0 127 0 C127.04898437 16.88800781 127.09796875 33.77601563 127.1484375 51.17578125 C127.18383288 61.88997901 127.21971863 72.60417143 127.2578125 83.31835938 C127.27781705 88.95011342 127.29770093 94.58186787 127.31738281 100.21362305 C127.31985425 100.91935941 127.32232569 101.62509578 127.32487202 102.35221809 C127.36446638 113.70879221 127.39726351 125.06537612 127.42749982 136.42197857 C127.45874112 148.09851761 127.49740342 159.77501553 127.54279006 171.45150822 C127.56793197 178.00090176 127.58974896 184.55026668 127.60334396 191.09969521 C127.61627681 197.27778533 127.63844949 203.4557767 127.66738319 209.63381195 C127.67637202 211.88823814 127.68212857 214.14268019 127.68421364 216.39712334 C127.71743727 246.89246759 129.5931392 278.0556043 151.71484375 301.44140625 C153 303 153 303 153 305 C153.57105469 305.25394531 154.14210938 305.50789063 154.73046875 305.76953125 C157.26392004 307.14308918 159.14889363 308.78546953 161.3125 310.6875 C173.09882812 320.20988533 189.82696044 326.36779002 205 327 C206.134375 327.0515625 207.26875 327.103125 208.4375 327.15625 C231.64593736 327.85584142 254.48189451 321.5677098 271.70043945 305.39111328 C288.0380481 289.37977145 297.76116861 266.22486265 298.1386652 243.26555729 C298.15014499 241.42478889 298.15631221 239.58398253 298.15821838 237.74317932 C298.16562535 236.21512638 298.16562535 236.21512638 298.17318195 234.65620369 C298.18851145 231.25070314 298.19690525 227.84522138 298.20532227 224.43969727 C298.21490436 221.9953444 298.22491464 219.55099317 298.23532104 217.10664368 C298.25674556 211.8482031 298.27519673 206.58976107 298.29092598 201.33130074 C298.31367278 193.72852153 298.34180883 186.12576972 298.37124526 178.52301382 C298.41886233 166.18698553 298.46214239 153.850946 298.50268555 141.51489258 C298.54207047 129.53408942 298.58351498 117.55329628 298.62768555 105.57250977 C298.63180981 104.45281261 298.63180981 104.45281261 298.63601738 103.31049532 C298.6599533 96.81696434 298.68404491 90.32343395 298.70815182 83.8299036 C298.81168812 55.88662173 298.90500283 27.94331523 299 0 C341.24 0 383.48 0 427 0 C427 145.53 427 291.06 427 441 C384.76 441 342.52 441 299 441 C298.67 423.51 298.34 406.02 298 388 C294.7 392.29 291.4 396.58 288 401 C263.8108418 429.61690338 231.03719312 446.17905466 193.88232422 449.77734375 C148.32621396 453.29650118 99.79899631 442.17840429 64.25 412.54101562 C60.7120132 409.48282657 57.34665273 406.26697052 54 403 C53.236875 402.29875 52.47375 401.5975 51.6875 400.875 C39.99639175 389.85195508 31.28519114 376.21400416 24 362 C23.65485352 361.33419922 23.30970703 360.66839844 22.95410156 359.98242188 C3.7699353 322.55078103 -0.17612486 281.39354379 -0.11352539 239.99267578 C-0.11324296 237.36995444 -0.11340234 234.74723302 -0.1139679 232.12451172 C-0.11448937 226.50222417 -0.11138211 220.87994833 -0.10573006 215.25766373 C-0.09756375 207.12902914 -0.0949946 199.00040015 -0.09374207 190.8717619 C-0.09155957 177.67996698 -0.08492133 164.48817827 -0.07543945 151.29638672 C-0.06624452 138.49039744 -0.05918537 125.68440988 -0.05493164 112.87841797 C-0.05466364 112.07951413 -0.05439565 111.28061029 -0.05411953 110.45749724 C-0.05203981 104.20849326 -0.05008299 97.95948925 -0.04816496 91.71048522 C-0.03875059 61.14031777 -0.01862772 30.57016591 0 0 Z " fill="#020202" transform="translate(1064,570)"/>
<path d="M0 0 C1.22387421 -0.00101212 1.22387421 -0.00101212 2.47247314 -0.00204468 C16.61391474 0.01643567 30.41962227 0.81338481 44.375 3.25 C45.32938965 3.41628906 46.2837793 3.58257813 47.26708984 3.75390625 C81.59441889 9.99418825 113.81832412 23.32103116 140.375 46.25 C141.64923828 47.34248047 141.64923828 47.34248047 142.94921875 48.45703125 C168.87517581 71.20521779 185.11086971 103.31571306 190.375 137.25 C190.375 138.57 190.375 139.89 190.375 141.25 C148.135 141.25 105.895 141.25 62.375 141.25 C60.395 137.62 58.415 133.99 56.375 130.25 C48.4226138 119.6468184 37.8429509 114.23565643 25.375 110.25 C24.37726563 109.92902344 23.37953125 109.60804688 22.3515625 109.27734375 C3.23871547 104.20418065 -20.8603619 105.05741996 -38.4375 114.70703125 C-43.6952481 118.41562143 -47.6286235 122.88360582 -50.125 128.8125 C-51.27840592 136.7421657 -50.97774561 142.37985451 -46.625 149.25 C-29.9841684 169.28441642 7.30956111 170.08882747 31.31640625 174.0703125 C142.23333096 192.48419439 142.23333096 192.48419439 175.5 237.8125 C183.09687522 248.61543657 188.06309378 260.29553366 191.75 272.9375 C191.98879883 273.75549072 192.22759766 274.57348145 192.47363281 275.41625977 C195.93171398 288.07628991 196.78618856 300.81824101 196.75 313.875 C196.74918427 314.98968658 196.74918427 314.98968658 196.74835205 316.12689209 C196.70791712 328.1839426 195.89535854 339.65844393 192.375 351.25 C192.06151611 352.28664795 192.06151611 352.28664795 191.74169922 353.34423828 C179.77065404 391.28393277 150.53097342 419.73504499 115.97412109 437.92919922 C60.79698118 465.96868137 -7.63731091 465.301887 -65.6484375 446.65625 C-109.26760988 432.19586383 -145.58900327 404.24582421 -166.74316406 363.07373047 C-174.89683059 346.6370328 -182.625 325.83220019 -182.625 307.25 C-142.365 307.25 -102.105 307.25 -60.625 307.25 C-59.305 310.55 -57.985 313.85 -56.625 317.25 C-47.70389891 332.0533843 -32.26173498 340.68117388 -16.11328125 345.4609375 C-6.09849974 347.72631921 3.48299265 348.58963268 13.75 348.5625 C14.96171875 348.57861328 16.1734375 348.59472656 17.421875 348.61132812 C33.67550456 348.61999211 50.64233388 345.05574554 63 333.875 C68.18490726 328.14431303 71.29817905 322.61039495 71.41015625 314.796875 C70.91713229 306.95659159 68.62741607 301.11084735 62.9375 295.625 C41.44491754 278.29734211 7.31377954 276.59600197 -18.92572021 271.95861816 C-53.49151343 265.83949486 -88.59797189 259.50526247 -119.625 242.25 C-120.75164062 241.62480469 -121.87828125 240.99960937 -123.0390625 240.35546875 C-146.92102626 226.3625759 -163.17834223 205.67772645 -170.875 178.9375 C-179.52700782 144.00501842 -174.47025179 105.22610527 -156.17602539 74.15087891 C-150.84609633 65.43261529 -144.54072124 57.74854926 -137.625 50.25 C-136.93792969 49.49203125 -136.25085937 48.7340625 -135.54296875 47.953125 C-108.19245529 19.16311083 -67.04055218 5.78331751 -28.625 1.25 C-27.82803711 1.15428711 -27.03107422 1.05857422 -26.20996094 0.95996094 C-17.49242338 0.03692755 -8.75642407 0.00653812 0 0 Z " fill="#020202" transform="translate(1711.625,560.75)"/>
<path d="M0 0 C1.06146744 -0.00101212 1.06146744 -0.00101212 2.14437866 -0.00204468 C52.35638698 0.07368987 96.78485198 20.6763147 132.19042969 55.67382812 C161.35759518 85.02469165 180.60596136 128.81590492 181.75 170.25 C181.77046387 170.98621582 181.79092773 171.72243164 181.81201172 172.48095703 C183.04090922 224.30793189 165.19572723 270.18617375 130.0390625 308.1796875 C105.4476996 333.63643561 73.10012076 350.45893964 38.75 358.25 C38.0374707 358.41371094 37.32494141 358.57742188 36.59082031 358.74609375 C13.6932879 363.71801196 -13.4274956 363.42056739 -36.25 358.25 C-37.04212891 358.07307617 -37.83425781 357.89615234 -38.65039062 357.71386719 C-86.34123942 346.74762356 -127.50950376 317.71156547 -153.52441406 276.21728516 C-169.38030915 250.11495258 -179.38124625 219.92078465 -180.25 189.25 C-180.30994141 187.33960938 -180.30994141 187.33960938 -180.37109375 185.390625 C-181.414177 135.43459852 -162.48815725 89.23741119 -128.19921875 53.26953125 C-115.11416831 39.78474251 -99.92796056 28.89666687 -83.25 20.25 C-82.30036377 19.7557251 -82.30036377 19.7557251 -81.33154297 19.25146484 C-63.25508181 9.98500731 -44.32241751 4.23247825 -24.25 1.25 C-23.56647461 1.146875 -22.88294922 1.04375 -22.17871094 0.9375 C-14.8202429 -0.02754499 -7.41020273 0.00636773 0 0 Z " fill="#6352A3" transform="translate(2550.25,548.75)"/>
<path d="M0 0 C11.61423116 11.65701209 20.55757824 24.84377824 28.0625 39.4375 C28.38057617 40.04384277 28.69865234 40.65018555 29.02636719 41.27490234 C47.83241017 77.48193913 49.92507895 122.00619574 37.7265625 160.6015625 C35.32229387 167.78030556 32.40249863 174.64822575 29.0625 181.4375 C28.75586426 182.06849609 28.44922852 182.69949219 28.13330078 183.34960938 C20.95681672 197.94811817 11.75134711 210.34413185 0.44824219 222.00488281 C-0.79500618 223.2901861 -2.01985104 224.59323077 -3.2421875 225.8984375 C-30.54038119 254.39655179 -70.67574715 269.22157749 -109.5625 270.5625 C-155.32358867 271.28886649 -195.93148587 253.69841803 -228.625 222.0625 C-257.72293115 192.2065909 -273.28796693 150.93427633 -272.9375 109.4375 C-271.68943776 65.27702242 -254.14608119 25.39474822 -222.4140625 -5.328125 C-158.33255739 -63.1429845 -61.27368425 -59.96413233 0 0 Z " fill="#FEBD12" transform="translate(2283.9375,486.5625)"/>
<path d="M0 0 C24.08669032 20.66609524 37.76001671 46.91154593 40.36035156 78.67382812 C42.13771449 109.23252186 30.72988876 136.65280733 11.1875 159.5625 C10.61773438 160.23539063 10.04796875 160.90828125 9.4609375 161.6015625 C-5.71641365 178.02423477 -28.98302375 188.91009736 -50.8125 192.5625 C-51.45445312 192.67335938 -52.09640625 192.78421875 -52.7578125 192.8984375 C-80.93857897 196.86303202 -110.02032749 189.66820963 -133.01611328 172.97412109 C-156.57060987 155.05268772 -171.78396592 130.01273834 -176.41552734 100.74365234 C-180.20123673 70.40675613 -172.84276022 41.57661641 -154.08203125 17.40234375 C-153.33308594 16.46519531 -152.58414062 15.52804687 -151.8125 14.5625 C-151.19761719 13.78003906 -150.58273437 12.99757813 -149.94921875 12.19140625 C-113.11061805 -32.0622447 -43.71162839 -34.66362699 0 0 Z " fill="#F36C23" transform="translate(2124.8125,826.4375)"/>
<path d="M0 0 C99.21017977 0 99.21017977 0 116.77734375 16.6484375 C127.86661895 28.38085168 131.56819979 43.18283823 131.3125 58.98828125 C130.65696965 70.10225199 127.24172316 79.79791671 121 89 C120.31153827 90.32221128 119.63737053 91.6524166 119 93 C119.65226562 93.53367187 120.30453125 94.06734375 120.9765625 94.6171875 C127.08530878 99.82493875 131.59234124 104.70548046 135 112 C135.61875 113.30904297 135.61875 113.30904297 136.25 114.64453125 C141.46923702 128.18192726 141.38879258 146.89880854 136.1875 160.42578125 C135.795625 161.27527344 135.40375 162.12476563 135 163 C134.649375 163.79792969 134.29875 164.59585938 133.9375 165.41796875 C127.89882147 177.60016398 117.28426057 186.5871348 104.875 191.75 C70.71522117 202.92956398 36.60152272 197 0 197 C0 131.99 0 66.98 0 0 Z M38 36 C38 49.53 38 63.06 38 77 C44.435 77.061875 50.87 77.12375 57.5 77.1875 C60.52317383 77.22846802 60.52317383 77.22846802 63.60742188 77.27026367 C65.22785851 77.27903603 66.84830183 77.28667819 68.46875 77.29296875 C69.29149414 77.30831665 70.11423828 77.32366455 70.96191406 77.33947754 C77.96688207 77.34260848 83.63728702 76.25998633 88.875 71.25 C93.19184106 64.6477725 94.10754013 57.51756358 92.5703125 49.859375 C90.91266597 44.49760474 87.85793237 40.82479771 83 38 C77.53384265 36.10447419 72.76175977 35.72960691 67.00390625 35.8046875 C65.89396301 35.80770874 65.89396301 35.80770874 64.76159668 35.81079102 C62.02850033 35.82116223 59.29549316 35.84908398 56.5625 35.875 C50.436875 35.91625 44.31125 35.9575 38 36 Z M39 113 C39 128.84 39 144.68 39 161 C45.06375 161.04125 51.1275 161.0825 57.375 161.125 C60.21424072 161.15231201 60.21424072 161.15231201 63.11083984 161.18017578 C80.5697299 161.62649944 80.5697299 161.62649944 95.46875 153.58203125 C100.23970863 148.18696466 101.29106734 143.65671202 101.3125 136.5625 C101.32925781 135.28503906 101.34601563 134.00757813 101.36328125 132.69140625 C100.72759065 126.23196946 97.89021981 122.12951895 93 118 C87.7173025 114.86405606 82.88818702 112.86780667 76.69042969 112.88647461 C75.83819824 112.88659546 74.9859668 112.88671631 74.10791016 112.88684082 C72.77832275 112.89451477 72.77832275 112.89451477 71.421875 112.90234375 C70.18945068 112.90385437 70.18945068 112.90385437 68.93212891 112.90539551 C65.87140501 112.91061618 62.81070106 112.92457745 59.75 112.9375 C52.9025 112.958125 46.055 112.97875 39 113 Z " fill="#050505" transform="translate(86,259)"/>
<path d="M0 0 C96.36434224 0 96.36434224 0 114.93896484 17.74707031 C128.5293917 31.37908637 132.30212374 47.0206785 132.31469727 65.70214844 C132.11329666 81.55201856 127.2564533 94.73261583 116.1875 106.375 C111.57436361 110.76846323 106.63151503 114.05244107 101 117 C102.67352723 121.90449888 105.39858738 125.98808313 108.1875 130.3125 C109.27927227 132.02303783 110.37038747 133.73399517 111.4609375 135.4453125 C112.03811523 136.34926758 112.61529297 137.25322266 113.20996094 138.18457031 C116.27237038 143.00122411 119.29135456 147.84489776 122.3125 152.6875 C122.93382812 153.68225342 123.55515625 154.67700684 124.1953125 155.7019043 C127.51526677 161.01731777 130.83229811 166.33454967 134.1484375 171.65234375 C135.16296997 173.27813354 135.16296997 173.27813354 136.19799805 174.93676758 C137.49192759 177.0103258 138.78510031 179.08435654 140.07739258 181.15893555 C143.66583922 186.91278069 143.66583922 186.91278069 147.42578125 192.5546875 C149 195 149 195 149 197 C142.89910837 197.34787965 136.80404848 197.60084439 130.69555664 197.76904297 C128.62194258 197.83917065 126.54901428 197.93451772 124.4777832 198.05615234 C107.85826579 199.00720912 107.85826579 199.00720912 103.26715088 195.78311157 C100.30019154 192.5914486 98.54911126 188.871906 96.85055542 184.89587402 C95.5418947 181.97889083 93.80815605 179.36634907 92.078125 176.68359375 C90.80070515 174.60240779 89.52468747 172.52036061 88.25 170.4375 C86.86223801 168.17562179 85.4742303 165.91389602 84.0859375 163.65234375 C83.40241211 162.53843262 82.71888672 161.42452148 82.01464844 160.27685547 C78.4725925 154.51564912 74.90674546 148.7691752 71.33691406 143.02514648 C70.8519043 142.24341064 70.36689453 141.4616748 69.8671875 140.65625 C69.37186523 139.90214844 68.87654297 139.14804687 68.36621094 138.37109375 C67 136 67 136 66.11035156 133.22265625 C65.04476002 129.88900531 65.04476002 129.88900531 61 126 C53.41 125.67 45.82 125.34 38 125 C38 148.76 38 172.52 38 197 C25.46 197 12.92 197 0 197 C0 131.99 0 66.98 0 0 Z M38 36 C38 53.49 38 70.98 38 89 C45.858125 89.0928125 45.858125 89.0928125 53.875 89.1875 C56.32268799 89.22846802 56.32268799 89.22846802 58.81982422 89.27026367 C69.12109741 89.32895859 78.75785082 88.90040396 87 82 C93.46085465 74.3277351 93.72702601 66.77685133 93.21777344 57.06738281 C92.54231777 50.65509743 89.30440357 45.76392854 84.5625 41.5625 C71.37135319 33.04974895 52.763267 35.78909619 38 36 Z " fill="#060606" transform="translate(354,259)"/>
<path d="M0 0 C0.66 0 1.32 0 2 0 C9.98480879 18.82235327 17.91669109 37.6620007 25.5625 56.625 C30.44765115 68.73966775 35.39735236 80.82395481 40.4375 92.875 C46.25189769 106.77985907 52.00107204 120.71006628 57.70727539 134.65966797 C61.5017649 143.93180168 65.32035161 153.1934643 69.1640625 162.4453125 C70.03943773 164.55482963 70.91476351 166.66436729 71.79003906 168.77392578 C73.0725658 171.8648646 74.35633824 174.95525143 75.64440918 178.04388428 C76.83664373 180.90285968 78.02420331 183.76373797 79.2109375 186.625 C79.74263046 187.89429855 79.74263046 187.89429855 80.2850647 189.1892395 C80.61428925 189.98530609 80.94351379 190.78137268 81.28271484 191.6015625 C81.5675473 192.28557129 81.85237976 192.96958008 82.14584351 193.67431641 C83.26660344 196.72590358 84.10691178 199.87419122 85 203 C72.46 203 59.92 203 47 203 C40.23825645 188.34955565 40.23825645 188.34955565 38.2265625 183.33203125 C37.79472656 182.25501953 37.36289062 181.17800781 36.91796875 180.06835938 C36.27794922 178.45670898 36.27794922 178.45670898 35.625 176.8125 C35.17511719 175.69552734 34.72523438 174.57855469 34.26171875 173.42773438 C33.83761719 172.36490234 33.41351562 171.30207031 32.9765625 170.20703125 C32.59580566 169.2528833 32.21504883 168.29873535 31.82275391 167.31567383 C31 165 31 165 31 163 C10.87 163 -9.26 163 -30 163 C-30.99 165.97 -31.98 168.94 -33 172 C-33.93962836 174.47693884 -34.90012653 176.94607608 -35.8828125 179.40625 C-36.14254852 180.05702515 -36.40228455 180.70780029 -36.66989136 181.3782959 C-37.21143882 182.73317381 -37.75426089 184.08754293 -38.29833984 185.44140625 C-39.13379262 187.52189585 -39.96360284 189.60457751 -40.79296875 191.6875 C-41.32258442 193.01054971 -41.85252033 194.33347129 -42.3828125 195.65625 C-42.86121582 196.85056641 -43.33961914 198.04488281 -43.83251953 199.27539062 C-45 202 -45 202 -46 203 C-48.8116338 203.08861992 -51.59858255 203.11522355 -54.41015625 203.09765625 C-55.25219101 203.0962413 -56.09422577 203.09482635 -56.96177673 203.09336853 C-59.66205335 203.08775263 -62.36224828 203.07519748 -65.0625 203.0625 C-66.88867068 203.05748705 -68.71484266 203.05292379 -70.54101562 203.04882812 C-75.02737542 203.03777804 -79.51367384 203.02050279 -84 203 C-75.99401266 182.69102646 -67.62083539 162.53816286 -59.23779297 142.3828125 C-56.00407829 134.60660304 -52.77998093 126.82640783 -49.55545044 119.04638672 C-47.78738882 114.78074956 -46.01865959 110.51538925 -44.25 106.25 C-43.54166349 104.54166798 -42.83333016 102.83333465 -42.125 101.125 C-37.875 90.875 -37.875 90.875 -36.81266785 88.31291199 C-36.10376825 86.60320817 -35.39487544 84.89350154 -34.68598938 83.18379211 C-32.92387525 78.93390417 -31.16164633 74.68406389 -29.39916992 70.43432617 C-26.10769663 62.49748255 -22.81734974 54.56017758 -19.53091431 46.62124634 C-17.99467726 42.91040334 -16.4578104 39.19982132 -14.92089844 35.48925781 C-14.19516209 33.73662053 -13.46972729 31.98385834 -12.74462891 30.23095703 C-8.56381941 20.12421896 -4.33950948 10.03977316 0 0 Z M0 89 C-3.88961445 96.337203 -7.07230966 103.86950644 -10.0769043 111.60742188 C-10.82307993 113.52722058 -11.57804982 115.44340065 -12.33398438 117.359375 C-14.89284212 123.01836378 -14.89284212 123.01836378 -16 129 C-5.44 129 5.12 129 16 129 C14.17110912 122.90369708 12.43993599 117.29231481 10.08203125 111.4609375 C9.81992355 110.80920563 9.55781586 110.15747375 9.2877655 109.48599243 C8.46678716 107.44730698 7.63978502 105.41113316 6.8125 103.375 C6.24764205 101.97542373 5.68318594 100.57568521 5.11914062 99.17578125 C3.750716 95.78197327 2.37688565 92.39038557 1 89 C0.67 89 0.34 89 0 89 Z " fill="#060606" transform="translate(755,252)"/>
<path d="M0 0 C12.87 0 25.74 0 39 0 C39 53.13 39 106.26 39 161 C65.73 161 92.46 161 120 161 C120 172.88 120 184.76 120 197 C80.4 197 40.8 197 0 197 C0 131.99 0 66.98 0 0 Z " fill="#070707" transform="translate(529,259)"/>
<path d="M0 0 C12.54 0 25.08 0 38 0 C38 65.01 38 130.02 38 197 C25.46 197 12.92 197 0 197 C0 131.99 0 66.98 0 0 Z " fill="#020202" transform="translate(265,259)"/>
<path d="M0 0 C0.66 0.33 1.32 0.66 2 1 C-5.92 8.92 -13.84 16.84 -22 25 C-22.66 24.67 -23.32 24.34 -24 24 C-16.32908807 15.59591248 -8.68092794 7.38078896 0 0 Z " fill="#FED25F" transform="translate(2070,474)"/>
<path d="M0 0 C0.66 0.33 1.32 0.66 2 1 C-5.59 8.59 -13.18 16.18 -21 24 C-21.66 23.67 -22.32 23.34 -23 23 C-8.1431293 6.74285575 -8.1431293 6.74285575 0 0 Z " fill="#535353" transform="translate(1588,598)"/>
<path d="M0 0 C0.66 0.33 1.32 0.66 2 1 C-5.59 8.59 -13.18 16.18 -21 24 C-21.66 23.67 -22.32 23.34 -23 23 C-15.69568836 14.86710152 -8.2434374 7.18866687 0 0 Z " fill="#968BC1" transform="translate(2436,589)"/>
<path d="M0 0 C0.66 0.33 1.32 0.66 2 1 C-4.93 7.93 -11.86 14.86 -19 22 C-19.66 21.67 -20.32 21.34 -21 21 C-14 14 -7 7 0 0 Z " fill="#50BF9E" transform="translate(2343,128)"/>
<path d="M0 0 C0.66 0.33 1.32 0.66 2 1 C-3.94 6.94 -9.88 12.88 -16 19 C-16.66 18.67 -17.32 18.34 -18 18 C-12.66852872 11.86633975 -7.24150573 6.20656218 -1 1 C-0.67 0.67 -0.34 0.34 0 0 Z " fill="#4F4F4F" transform="translate(716,597)"/>
<path d="M0 0 C0.66 0.33 1.32 0.66 2 1 C-3.28 6.28 -8.56 11.56 -14 17 C-14.66 16.67 -15.32 16.34 -16 16 C-10.96679794 10.22494276 -5.96260189 4.82082706 0 0 Z " fill="#F69B69" transform="translate(1988,826)"/>
</svg>
